<svg xmlns="http://www.w3.org/2000/svg" width="46" height="46" viewBox="0 0 46 46">
    <g fill="none" fill-rule="evenodd">
        <path fill="#FFFFFF" d="M-442-332H958V674H-442z"/>
        <path fill="#9B9B9B" d="M39.266 6.729c-8.968-8.972-23.561-8.972-32.53 0A22.916 22.916 0 0 0 .51 18.166a23.06 23.06 0 0 0 .853 12.644.937.937 0 0 0 1.762-.636 21.19 21.19 0 0 1-.784-11.617A21.048 21.048 0 0 1 8.06 8.053c8.238-8.241 21.643-8.241 29.882 0a21.011 21.011 0 0 1 6.184 14.69c.065 5.54-1.999 10.798-5.809 14.809-.046.047-.09.095-.135.143a9.68 9.68 0 0 1-.24.251c-8.239 8.242-21.644 8.242-29.882 0a5.496 5.496 0 0 1-.129-.133 15.48 15.48 0 0 1 .006-.82c.002-.062.007-.124.01-.186.006-.124.012-.25.021-.373l.02-.22.031-.335.03-.233c.013-.106.026-.212.041-.316.012-.08.026-.16.04-.239a10.673 10.673 0 0 1 .1-.546l.061-.299.058-.24c.023-.097.046-.195.071-.292l.066-.24.082-.286.075-.237c.03-.093.06-.188.092-.28.026-.08.055-.157.083-.236a12.25 12.25 0 0 1 .193-.507l.11-.271a11.305 11.305 0 0 1 .22-.494l.108-.225.13-.262a12.915 12.915 0 0 1 .255-.476c.04-.072.08-.143.122-.214.049-.085.1-.169.15-.252a18.845 18.845 0 0 1 .424-.661c.055-.082.111-.162.168-.242l.143-.199a19.02 19.02 0 0 1 .514-.659 9.923 9.923 0 0 1 .351-.412l.16-.18.207-.219c.055-.058.11-.117.166-.174l.217-.213c.056-.056.112-.111.17-.166.075-.07.151-.14.227-.208l.174-.158c.079-.07.16-.137.24-.204.058-.05.116-.1.175-.148.084-.068.168-.134.253-.2.06-.046.117-.094.176-.139.09-.067.181-.132.272-.198.057-.042.113-.084.171-.125.1-.07.203-.138.305-.206l.15-.102c.133-.086.269-.17.405-.253l.063-.04c.159-.094.319-.185.48-.274l.169-.09c.107-.057.215-.115.324-.17.07-.035.142-.068.213-.103l.268-.128a9.148 9.148 0 0 0 6.31 2.54c2.35 0 4.613-.92 6.31-2.54a15.249 15.249 0 0 1 7.496 7.631.936.936 0 1 0 1.714-.754 16.883 16.883 0 0 0-7.961-8.351 9.11 9.11 0 0 0 1.586-5.135c0-5.044-4.102-9.148-9.145-9.148a.937.937 0 0 0 0 1.873c4.01 0 7.273 3.264 7.273 7.275a7.256 7.256 0 0 1-1.877 4.863v.001A7.28 7.28 0 0 1 23 24.53a7.28 7.28 0 0 1-5.396-2.412 7.257 7.257 0 0 1-1.877-4.864c0-1.958.766-3.795 2.158-5.171a.937.937 0 0 0-1.317-1.332 9.086 9.086 0 0 0-2.713 6.503 9.11 9.11 0 0 0 1.583 5.13l-.027.015c-.073.036-.144.075-.217.113-.11.057-.222.114-.332.174-.077.042-.153.086-.229.13-.102.057-.205.115-.305.175-.08.046-.156.094-.233.142l-.289.18-.231.153c-.092.062-.185.124-.276.187l-.228.162a16.514 16.514 0 0 0-2.509 2.217c-.062.067-.124.133-.185.201-.075.082-.146.167-.218.25-.06.068-.118.135-.175.203-.073.088-.144.177-.216.266-.053.068-.108.133-.16.2-.075.097-.147.195-.22.294-.046.062-.094.122-.138.185-.093.128-.183.257-.27.388-.024.035-.049.068-.072.103-.11.164-.218.331-.322.5-.036.058-.07.117-.105.176-.068.112-.136.224-.2.338-.04.07-.08.143-.119.215-.057.103-.114.206-.169.31l-.118.233c-.05.101-.102.2-.15.303-.04.08-.077.162-.114.244-.047.1-.093.2-.137.302-.037.083-.072.167-.107.251-.042.102-.084.202-.124.304l-.1.258-.112.307a18.873 18.873 0 0 0-.192.573l-.082.267a15.824 15.824 0 0 0-.241.907c-.021.09-.043.179-.062.27-.025.109-.047.218-.07.328l-.052.27-.057.338c-.014.089-.03.178-.042.267-.017.117-.032.233-.046.35-.01.087-.023.174-.032.261-.014.123-.024.247-.034.37l-.023.247c-.01.138-.016.276-.022.414l-.012.207c-.007.208-.011.416-.011.626 0 .226.007.44.016.676a1.022 1.022 0 0 0 .07.32l.007.013c.02.047.044.092.07.134l.011.016a.91.91 0 0 0 .092.117l.007.009.124.131c.093.1.186.2.284.297C11.219 43.757 17.11 46 23 46c5.891 0 11.781-2.243 16.266-6.729.097-.097.19-.197.284-.297l.123-.131a22.887 22.887 0 0 0 6.325-16.12A22.876 22.876 0 0 0 39.266 6.73z"/>
    </g>
</svg>
