<svg xmlns="http://www.w3.org/2000/svg" xmlns:xlink="http://www.w3.org/1999/xlink" width="24" height="24" viewBox="0 0 24 24">
    <defs>
        <path id="a" d="M.002 0H14v14H.002z"/>
    </defs>
    <g fill="none" fill-rule="evenodd">
        <path fill="#FFFFFF" d="M-349-389h1400V617H-349z"/>
        <g transform="translate(7 5)">
            <mask id="b" fill="#fff">
                <use xlink:href="#a"/>
            </mask>
            <path fill="#DF6A5C" d="M11.103 14H2.897A2.897 2.897 0 0 1 0 11.103V2.897C0 1.297 1.297 0 2.897 0h8.206C12.703 0 14 1.297 14 2.897v8.206c0 1.6-1.297 2.897-2.897 2.897" mask="url(#b)"/>
        </g>
        <path fill="#FFFFFE" d="M13.33 15.348a.236.236 0 0 1-.083-.016.256.256 0 0 1-.145-.325l1.948-5.58a.24.24 0 0 1 .312-.15.256.256 0 0 1 .145.324l-1.948 5.58a.244.244 0 0 1-.229.167M11.641 15.348c-.503 0-.913-.455-.913-1.015V13.17l-.618-.686a.274.274 0 0 1 0-.359l.618-.687v-1.163c0-.56.41-1.014.913-1.014.127 0 .229.113.229.254 0 .14-.102.253-.229.253-.251 0-.456.228-.456.507v1.268a.268.268 0 0 1-.067.18l-.523.581.523.582a.268.268 0 0 1 .067.18v1.267c0 .28.205.508.456.508.127 0 .229.113.229.253s-.102.254-.229.254M16.358 15.348c-.126 0-.228-.114-.228-.254s.102-.253.228-.253c.252 0 .457-.228.457-.508v-1.268c0-.067.023-.132.067-.18l.524-.58-.524-.582a.267.267 0 0 1-.067-.18v-1.268c0-.28-.205-.507-.457-.507-.126 0-.228-.114-.228-.253 0-.14.102-.254.228-.254.504 0 .913.455.913 1.014v1.163l.618.687a.268.268 0 0 1 .068.18.268.268 0 0 1-.068.179l-.618.686v1.163c0 .56-.41 1.015-.913 1.015"/>
    </g>
</svg>
