<svg xmlns="http://www.w3.org/2000/svg" width="46" height="41" viewBox="0 0 46 41">
    <g fill="none" fill-rule="evenodd">
        <path fill="#FFFFFF" d="M-380-330h1400V676H-380z"/>
        <g fill="#000">
            <path d="M34.216 15.224H32.19v-3.211c-.002-2.183-1.782-3.951-3.978-3.954H22.72a2.558 2.558 0 0 1-1.672-.622l-1.75-1.513A3.796 3.796 0 0 0 16.813 5H8.977C6.781 5.002 5.002 6.77 5 8.953V29.46c0 2.415 1.904 4.408 4.331 4.533V34H28.99v-1.228h-16.3a4.547 4.547 0 0 0 1.32-2.25l3.448-12.097.007-.025a2.537 2.537 0 0 1 2.48-1.949h14.271c.76 0 1.481.338 1.965.92a2.52 2.52 0 0 1 .537 2.092l-.86 3.578 1.202.285.863-3.59.005-.024a3.742 3.742 0 0 0-.789-3.115 3.792 3.792 0 0 0-2.922-1.373zM10.931 16.52v15.962a3.354 3.354 0 0 1-1.93.242v-18.72a2.543 2.543 0 0 1 2.547-2.532h12.744a1.917 1.917 0 0 1 1.812 1.289h-11.39c-2.088.002-3.78 1.684-3.783 3.76zm9.014-1.295a3.767 3.767 0 0 0-3.68 2.879l-3.447 12.096-.006.026a3.307 3.307 0 0 1-.646 1.308V16.519a2.543 2.543 0 0 1 2.549-2.532H27.51c.789.002 1.492.497 1.754 1.237h-9.32zm11.01 0h-.41a3.098 3.098 0 0 0-3.034-2.464h-.13a3.15 3.15 0 0 0-3.09-2.516H11.548c-2.088.002-3.78 1.684-3.783 3.76v18.242a3.336 3.336 0 0 1-.553-.444 3.276 3.276 0 0 1-.977-2.341V8.953a2.736 2.736 0 0 1 2.742-2.725h7.836c.615 0 1.21.22 1.673.623l1.75 1.513a3.8 3.8 0 0 0 2.484.923h5.492a2.737 2.737 0 0 1 2.743 2.726v3.211z"/>
            <path d="M36.5 23a8.503 8.503 0 0 0-8.128 10.99 8.564 8.564 0 0 0 3.027 4.31A8.5 8.5 0 1 0 36.5 23zm0 15.774a7.21 7.21 0 0 1-4.364-1.455 7.333 7.333 0 0 1-2.591-3.688 7.273 7.273 0 0 1 6.841-9.403h.017l.076-.001h.021a7.273 7.273 0 1 1 0 14.546z"/>
            <path d="M40.41 30.41h-2.82v-2.82a.59.59 0 1 0-1.18 0v2.82h-2.82a.59.59 0 1 0 0 1.18h2.82v2.82a.59.59 0 0 0 1.18 0v-2.82h2.82a.59.59 0 0 0 0-1.18z"/>
        </g>
    </g>
</svg>
