<svg xmlns="http://www.w3.org/2000/svg" xmlns:xlink="http://www.w3.org/1999/xlink" width="71" height="72" viewBox="0 0 71 72">
    <defs>
        <path id="a" d="M.008 0H70v70H.008z"/>
    </defs>
    <g fill="none" fill-rule="evenodd">
        <path fill="#FFFFFF" d="M-342-494h1400V512H-342z"/>
        <g transform="translate(0 2)">
            <mask id="b" fill="#fff">
                <use xlink:href="#a"/>
            </mask>
            <path fill="#EC9637" d="M35 0c19.33 0 35 15.67 35 35S54.33 70 35 70 0 54.33 0 35 15.67 0 35 0" mask="url(#b)"/>
            <path fill="#FFFFFE" d="M35.432 6.914c15.75 0 28.519 12.768 28.519 28.518S51.182 63.951 35.432 63.951c-15.75 0-28.518-12.769-28.518-28.519 0-15.75 12.768-28.518 28.518-28.518" mask="url(#b)"/>
            <path fill="#151614" d="M46.748 27.03a2.671 2.671 0 1 0-3.778-3.778l-10.13 10.13 3.778 3.778 10.13-10.13" mask="url(#b)"/>
            <path fill="#DB3840" d="M33.9 34.568L18.644 49.822a1.695 1.695 0 0 0 2.397 2.398l15.254-15.255-2.397-2.397" mask="url(#b)"/>
            <path fill="#151614" d="M23.552 19.791a2.659 2.659 0 1 0-3.76 3.76L33.4 37.162l3.76-3.761L23.552 19.79" mask="url(#b)"/>
            <path fill="#4A4744" d="M35.432 39.753a4.326 4.326 0 0 1-4.32-4.32 4.326 4.326 0 0 1 4.32-4.322 4.326 4.326 0 0 1 4.321 4.321 4.326 4.326 0 0 1-4.32 4.321" mask="url(#b)"/>
            <path fill="#73706B" d="M15.556 37.16h-2.593a1.728 1.728 0 0 1 0-3.456h2.593a1.728 1.728 0 0 1 0 3.456M35.432 17.284a1.728 1.728 0 0 1-1.728-1.728v-2.593a1.728 1.728 0 0 1 3.456 0v2.593c0 .954-.773 1.728-1.728 1.728M57.037 37.16h-2.593a1.728 1.728 0 0 1 0-3.456h2.593a1.728 1.728 0 0 1 0 3.456M35.432 58.765a1.728 1.728 0 0 1-1.728-1.728v-2.593a1.728 1.728 0 0 1 3.456 0v2.593c0 .954-.773 1.728-1.728 1.728" mask="url(#b)"/>
        </g>
    </g>
</svg>
