<svg xmlns="http://www.w3.org/2000/svg" xmlns:xlink="http://www.w3.org/1999/xlink" width="24" height="18" viewBox="0 0 24 18">
    <defs>
        <path id="a" d="M0 0h16v18H0z"/>
    </defs>
    <g fill="none" fill-rule="evenodd">
        <path fill="#F9F9F9" d="M-389-447h1400V559H-389z"/>
        <g transform="translate(5)">
            <mask id="b" fill="#fff">
                <use xlink:href="#a"/>
            </mask>
            <path fill="#8A8A8A" d="M14.402 11.175a.694.694 0 0 0-.986 0l-.135.135.986.995.135-.136a.708.708 0 0 0 0-.994zm-1.122 2.123l-.986-.995-2.584 2.6-.414 1.375 1.416-.396 2.568-2.584zm2.108-.135l-3.82 3.845a.696.696 0 0 1-.307.18l-2.815.786a.69.69 0 0 1-.685-.186.707.707 0 0 1-.168-.696l.834-2.767a.704.704 0 0 1 .174-.294l3.829-3.851a2.082 2.082 0 0 1 2.958 0c.816.823.816 2.161 0 2.983zM3.483 9.843a.7.7 0 0 0-.697.704.7.7 0 0 0 .697.703h4.363a.7.7 0 0 0 .697-.703.7.7 0 0 0-.697-.703H3.483zm7.88-2.109a.7.7 0 0 0-.697-.703H3.483a.7.7 0 0 0-.697.703.7.7 0 0 0 .697.704h7.183a.7.7 0 0 0 .697-.704zm-.697-3.515H3.483a.7.7 0 0 0-.697.703.7.7 0 0 0 .697.703h7.183a.7.7 0 0 0 .697-.703.7.7 0 0 0-.697-.703zM5.819 17.297a.7.7 0 0 1-.697.703H2.79C1.25 18 0 16.738 0 15.187V2.813C0 1.262 1.251 0 2.79 0h8.573c1.539 0 2.79 1.262 2.79 2.813v4.324a.7.7 0 0 1-.697.703.7.7 0 0 1-.698-.703V2.813c0-.776-.626-1.407-1.395-1.407H2.79c-.77 0-1.395.631-1.395 1.407v12.374c0 .776.625 1.407 1.395 1.407h2.332a.7.7 0 0 1 .697.703z" mask="url(#b)"/>
        </g>
    </g>
</svg>
