<svg xmlns="http://www.w3.org/2000/svg" width="20" height="21" viewBox="0 0 20 21">
    <g fill="none" fill-rule="evenodd">
        <path fill="#FFFFFF" d="M-353-336h1400V670H-353z"/>
        <path fill="#FDCC9B" d="M10 16.357h2.357V14H10z"/>
        <path fill="#FCBC85" d="M10 14.299s.992.606 2.357.466V14H10v.299zM7.357 11.464a1.178 1.178 0 1 1-2.357 0 1.178 1.178 0 0 1 2.357 0zM16 11.464a1.178 1.178 0 1 1-2.357 0 1.178 1.178 0 0 1 2.357 0z"/>
        <path fill="#FDCC9B" d="M14.424 8.615c0-1.758-1.335-3.044-4.317-3.044S5.79 6.857 5.79 8.615c0 1.757-.312 6.385 4.317 6.385 4.629 0 4.317-4.628 4.317-6.385z"/>
        <path fill="#3B2519" d="M8.929 10.678a.393.393 0 1 1-.786 0 .393.393 0 0 1 .786 0z"/>
        <path fill="#FFF" d="M8.536 10.482a.196.196 0 1 1-.393 0 .196.196 0 0 1 .393 0z"/>
        <path fill="#86461B" d="M7.404 9.437c.227.131.592-.443 1.427.056.152.091.243-.779-.652-.779-.775 0-.912.644-.775.723z"/>
        <path fill="#3B2519" d="M12.857 10.678a.393.393 0 1 1-.786 0 .393.393 0 0 1 .786 0z"/>
        <path fill="#FFF" d="M12.464 10.482a.196.196 0 1 1-.392 0 .196.196 0 0 1 .392 0z"/>
        <path fill="#86461B" d="M13.596 9.437c-.227.131-.592-.443-1.427.056-.152.091-.243-.779.652-.779.775 0 .912.644.775.723z"/>
        <path fill="#FCBC85" d="M10.5 12.975c-.49 0-.786-.512-.786-.264 0 .247.142.718.786.718s.786-.471.786-.718c0-.248-.296.264-.786.264zM10.893 14.38c-.246 0-.393-.256-.393-.132s.07.36.393.36c.322 0 .393-.236.393-.36s-.148.132-.393.132z"/>
        <path fill="#F7945E" d="M10.107 13.668c-.735 0-1.178-.304-1.178-.227 0 .077.212.38 1.178.38s1.179-.303 1.179-.38c0-.077-.443.227-1.179.227z"/>
        <path fill="#D58E64" d="M10.5 15v3.143H5C5 16.87 7.897 15 10.5 15z"/>
        <path fill="#D58E64" d="M10 15v3.143h5.5C15.5 16.87 12.603 15 10 15z"/>
        <path fill="#BF805A" d="M10.544 15A7.75 7.75 0 0 0 9 15.165c.003.004.563.62 1.544.62.908 0 1.511-.527 1.599-.609a7.783 7.783 0 0 0-1.6-.176z"/>
        <path fill="#FDCC9B" d="M10 15.249s.345.537 1.179.537c.834 0 1.178-.537 1.178-.537s-1.223-.56-2.357 0z"/>
        <path fill="#86461B" d="M10.143 14.57v1.001c-2.191 0-2.914-1.2-3.129-1.535-.159-.249 1.031.873 2.08.873.462 0 .441-.34 1.049-.34z"/>
        <path fill="#86461B" d="M10 14.57v1.001c2.191 0 2.914-1.2 3.128-1.535.16-.249-1.03.873-2.08.873-.46 0-.44-.34-1.048-.34zM10.5 7.733V4C6.714 4 6.006 5.457 5.83 8.189c-.177 2.731.222 3.672.486 3.668.265-.004.123-3.132.486-3.805.663-1.23 1.848-.319 3.698-.319z"/>
        <path fill="#86461B" d="M10.5 7.733V4c3.786 0 4.494 1.457 4.67 4.189.177 2.731-.222 3.672-.486 3.668-.265-.004-.123-3.132-.486-3.805-.663-1.23-1.849-.319-3.698-.319z"/>
        <path fill="#744A25" d="M8.143 16C6.403 16.56 5 17.584 5 18.357h3.143V16z"/>
        <path fill="#573514" d="M7.786 18.357V16s-.332.153-.447.225L7 18.357h.786z"/>
        <path fill="#744A25" d="M13 16c1.74.56 3.143 1.584 3.143 2.357H13V16z"/>
        <path fill="#573514" d="M13 18.357V16s.332.153.447.225l.339 2.132H13z"/>
    </g>
</svg>
