<svg xmlns="http://www.w3.org/2000/svg" xmlns:xlink="http://www.w3.org/1999/xlink" width="20" height="17" viewBox="0 0 20 17">
    <defs>
        <path id="a" d="M.002.028h13.984v10.578H.002z"/>
    </defs>
    <g fill="none" fill-rule="evenodd">
        <path fill="#FFFFFF" d="M-353-364h1400V642H-353z"/>
        <path fill="#7E5C62" d="M11.68 4.24c-.155 0-.28-.084-.28-.187v-.746c0-.103.125-.187.28-.187.155 0 .28.084.28.187v.746c0 .103-.125.187-.28.187zM7.76 4.24c-.155 0-.28-.084-.28-.187v-.746c0-.103.125-.187.28-.187.155 0 .28.084.28.187v.746c0 .103-.125.187-.28.187z"/>
        <g transform="translate(3 3.68)">
            <mask id="b" fill="#fff">
                <use xlink:href="#a"/>
            </mask>
            <path fill="#996459" d="M13.33 5.537H.657a.22.22 0 0 0-.219.22v3.747c0 .607.49 1.102 1.093 1.102h10.927c.602 0 1.092-.495 1.092-1.102V5.757a.22.22 0 0 0-.218-.22z" mask="url(#b)"/>
            <path fill="#BA7958" d="M12.894.028H1.093C.49.028 0 .522 0 1.129v3.835c0 .443.264.843.673 1.019A15.966 15.966 0 0 0 6.338 7.27h1.32a15.957 15.957 0 0 0 5.656-1.287c.408-.176.672-.576.672-1.019V1.13c0-.607-.49-1.101-1.092-1.101z" mask="url(#b)"/>
        </g>
        <path fill="#7E5C62" d="M12.52 8.504c0-.498-.377-.904-.84-.904H8.32c-.463 0-.84.406-.84.904v2.245c.623.11 1.253.183 1.89.211h1.269c.633-.028 1.26-.101 1.881-.211V8.504z"/>
        <path fill="#FFCD00" d="M9.907 11.52h-.374c-.206 0-.373-.188-.373-.42v-.84c0-.232.167-.42.373-.42h.374c.206 0 .373.188.373.42v.84c0 .232-.167.42-.373.42z"/>
        <path fill="#996459" d="M12.09 3.12a.451.451 0 0 1-.125-.018c-.647-.185-1.424-.283-2.245-.283-.822 0-1.598.098-2.245.283a.435.435 0 0 1-.537-.274.406.406 0 0 1 .289-.51C7.953 2.11 8.815 2 9.72 2c.904 0 1.767.11 2.493.318a.407.407 0 0 1 .289.51.429.429 0 0 1-.413.292z"/>
        <path fill="#FFE671" d="M10.093 9.84h-.746c-.103 0-.187.1-.187.224v.448c0 .247.167.448.373.448h.374c.206 0 .373-.2.373-.448v-.448c0-.124-.084-.224-.187-.224z"/>
    </g>
</svg>
